<svg xmlns="http://www.w3.org/2000/svg" style="display: none;">
  <!-- Iconos para las diferentes secciones -->
  <symbol id="icon-truck" viewBox="0 0 24 24">
    <path d="M20 8h-3V4H3c-1.1 0-2 .9-2 2v11h2c0 1.66 1.34 3 3 3s3-1.34 3-3h6c0 1.66 1.34 3 3 3s3-1.34 3-3h2v-5l-3-4zM6 18.5c-.83 0-1.5-.67-1.5-1.5s.67-1.5 1.5-1.5 1.5.67 1.5 1.5-.67 1.5-1.5 1.5zm13.5-9l1.96 2.5H17V9.5h2.5zm-1.5 9c-.83 0-1.5-.67-1.5-1.5s.67-1.5 1.5-1.5 1.5.67 1.5 1.5-.67 1.5-1.5 1.5z"/>
  </symbol>
  <symbol id="icon-calculator" viewBox="0 0 24 24">
    <path d="M19 3H5c-1.1 0-2 .9-2 2v14c0 1.1.9 2 2 2h14c1.1 0 2-.9 2-2V5c0-1.1-.9-2-2-2zm-7 2h6v6h-6V5zM5 5h6v6H5V5zm0 8h6v6H5v-6zm8 6v-6h6v6h-6z"/>
  </symbol>
  <symbol id="icon-map" viewBox="0 0 24 24">
    <path d="M20.5 3l-.16.03L15 5.1 9 3 3.36 4.9c-.21.07-.36.25-.36.48V20.5c0 .28.22.5.5.5l.16-.03L9 18.9l6 2.1 5.64-1.9c.21-.07.36-.25.36-.48V3.5c0-.28-.22-.5-.5-.5zM15 19l-6-2.11V5l6 2.11V19z"/>
  </symbol>
  <symbol id="icon-calendar" viewBox="0 0 24 24">
    <path d="M19 3h-1V1h-2v2H8V1H6v2H5c-1.11 0-1.99.9-1.99 2L3 19c0 1.1.89 2 2 2h14c1.1 0 2-.9 2-2V5c0-1.1-.9-2-2-2zm0 16H5V8h14v11zM7 10h5v5H7z"/>
  </symbol>
  <symbol id="icon-star" viewBox="0 0 24 24">
    <path d="M12 17.27L18.18 21l-1.64-7.03L22 9.24l-7.19-.61L12 2 9.19 8.63 2 9.24l5.46 4.73L5.82 21z"/>
  </symbol>
  <symbol id="icon-contact" viewBox="0 0 24 24">
    <path d="M20 4H4c-1.1 0-1.99.9-1.99 2L2 18c0 1.1.9 2 2 2h16c1.1 0 2-.9 2-2V6c0-1.1-.9-2-2-2zm0 4l-8 5-8-5V6l8 5 8-5v2z"/>
  </symbol>
  <symbol id="icon-whatsapp" viewBox="0 0 24 24">
    <path d="M16.75 13.96c.25.13.41.2.46.3.06.11.04.61-.21 1.18-.2.56-1.24 1.1-1.7 1.12-.46.02-.47.36-2.96-.73-2.49-1.09-3.99-3.75-4.11-3.92-.12-.17-.96-1.38-.92-2.61.05-1.22.69-1.8.95-2.04.24-.26.51-.29.68-.26h.47c.15 0 .36-.06.55.45l.69 1.87c.06.13.1.28.01.44l-.27.41-.39.42c-.12.12-.26.25-.12.5.12.26.62 1.09 1.32 1.78.91.88 1.71 1.17 1.95 1.3.24.14.39.12.54-.04l.81-.94c.19-.25.35-.19.58-.11l1.67.88M12 2a10 10 0 0 1 10 10 10 10 0 0 1-10 10c-1.97 0-3.8-.57-5.35-1.55L2 22l1.55-4.65A9.969 9.969 0 0 1 2 12 10 10 0 0 1 12 2m0 2a8 8 0 0 0-8 8c0 1.72.54 3.31 1.46 4.61L4.5 19.5l2.89-.96A7.95 7.95 0 0 0 12 20a8 8 0 0 0 8-8 8 8 0 0 0-8-8z"/>
  </symbol>
</svg>